HIERARCHY
ROOT pelvis
{
  OFFSET 7.20071 88.6142 -107.945
  CHANNELS 6 Xposition Yposition Zposition Zrotation Xrotation Yrotation
  JOINT lfemur
  {
    OFFSET 0 11.9945 0
    CHANNELS 3 Zrotation Xrotation Yrotation
    JOINT ltibia
    {
      OFFSET 0 0 -41.4872
      CHANNELS 3 Zrotation Xrotation Yrotation
      JOINT lfoot
      {
        OFFSET 0 0 -39.7538
        CHANNELS 3 Zrotation Xrotation Yrotation
        JOINT ltoes
        {
          OFFSET 15.4382 0 0
          CHANNELS 3 Zrotation Xrotation Yrotation
          End Site
          {
            OFFSET 0 0 0
          }
        }
      }
    }
  }
  JOINT rfemur
  {
    OFFSET 0 -11.9945 0
    CHANNELS 3 Zrotation Xrotation Yrotation
    JOINT rtibia
    {
      OFFSET 0 0 -41.4872
      CHANNELS 3 Zrotation Xrotation Yrotation
      JOINT rfoot
      {
        OFFSET 0 0 -39.7538
        CHANNELS 3 Zrotation Xrotation Yrotation
        JOINT rtoes
        {
          OFFSET 15.4382 0 0
          CHANNELS 3 Zrotation Xrotation Yrotation
          End Site
          {
            OFFSET 0 0 0
          }
        }
      }
    }
  }
  JOINT thorax
  {
    OFFSET 2.86159 -2.14819 9.3013
    CHANNELS 3 Zrotation Xrotation Yrotation
    JOINT head
    {
      OFFSET 2.32635 -2.20353 47.7651
      CHANNELS 3 Zrotation Xrotation Yrotation
      End Site
      {
        OFFSET 0 0 0
      }
    }
    JOINT lclavicle
    {
      OFFSET 0 0 42.6193
      CHANNELS 3 Zrotation Xrotation Yrotation
      JOINT lhumerus
      {
        OFFSET 0 19.157 -2.10407
        CHANNELS 3 Zrotation Xrotation Yrotation
        JOINT lradius
        {
          OFFSET 0 0 -26.2788
          CHANNELS 3 Zrotation Xrotation Yrotation
          JOINT lhand
          {
            OFFSET 0 0 -26.6372
            CHANNELS 3 Zrotation Xrotation Yrotation
            End Site
            {
              OFFSET 0 0 0
            }
          }
        }
      }
    }
    JOINT rclavicle
    {
      OFFSET 0 0 42.6193
      CHANNELS 3 Zrotation Xrotation Yrotation
      JOINT rhumerus
      {
        OFFSET 0 -19.157 -2.10407
        CHANNELS 3 Zrotation Xrotation Yrotation
        JOINT rradius
        {
          OFFSET 0 0 -26.2788
          CHANNELS 3 Zrotation Xrotation Yrotation
          JOINT rhand
          {
            OFFSET 0 0 -26.6372
            CHANNELS 3 Zrotation Xrotation Yrotation
            End Site
            {
              OFFSET 0 0 0
            }
          }
        }
      }
    }
  }
}
MOTION
Frames:	14
Frame Time:	0.0333333
8.14506 85.4886 -105.595 -96.0962 45.4395 -81.7829 28.8612 9.23 -25.3999 -2.79138e-015 -1.59028e-015 21.5719 -0.531465 -0.154677 16.2501 -5.83689e-015 8.74653e-015 -31.4331 -1.66933 0.754893 -8.82282 -3.09818e-015 -8.94531e-016 25.5994 -2.57282 -0.0964014 2.14509 -1.94653e-014 1.59028e-015 -75.6622 -14.3732 3.21332 -10.0054 56.5012 4.93751 5.66736 8.90859 4.28207 -0.670581 84.9807 -7.37673 -32.9834 -107.742 -34.3894 -10.2434 -0.00264055 23.4774 -18.6873 4.22805 -19.0615 1.38187 -65.6973 -30.6472 -63.7873 -2.94561 18.2711 -80.2489 0.00565124 -5.25553 167.307 
8.13598 85.3362 -105.438 -96.1488 45.9428 -81.601 29.6168 9.13626 -26.0419 6.90071e-015 0 22.8085 -0.633954 -0.175133 15.4655 -1.05364e-014 7.15625e-015 -31.4394 -1.20268 0.661339 -9.33096 3.91618e-016 -7.95139e-016 26.2209 -2.7177 -0.104952 2.21052 -3.5942e-014 0 -74.6049 -15.6567 2.23075 -9.80143 58.0952 4.83703 4.53839 9.01699 4.86015 -0.770798 87.7169 -8.28046 -33.524 -108.517 -35.266 -10.9494 -0.00498261 24.7947 -19.4173 2.32423 -19.2228 0.767474 -63.9009 -38.9009 -59.1365 -0.818403 26.1488 -87.5365 0.00947943 -4.42739 169.588 
8.03956 85.192 -105.392 -96.2154 45.9379 -81.4658 29.3763 9.23103 -26.4883 -4.16945e-015 1.59028e-015 23.6643 -0.494438 -0.132719 14.9304 -2.59426e-015 7.95139e-015 -31.4424 -0.584004 0.772013 -9.60397 -6.92435e-015 -3.97569e-016 26.7736 -3.35479 -0.115967 2.01124 5.57997e-015 1.59028e-015 -74.0926 -17.4805 1.13855 -9.47576 59.1383 4.79769 2.64801 9.14643 5.22452 -0.840338 90.5476 -9.27435 -34.004 -110.246 -35.825 -12.1927 0.000107805 25.2868 -19.6521 0.364597 -18.6303 0.129959 -61.5381 -44.3389 -53.9816 1.04537 25.5594 -92.5652 0.00390577 -4.72099 169.666 
7.95419 85.0633 -105.368 -96.3008 45.4171 -81.4004 28.6479 9.40576 -26.9094 -6.62237e-015 -7.95139e-016 24.3501 -0.312756 -0.081648 14.5648 -6.32193e-015 7.95139e-015 -31.4464 -0.53619 0.970655 -9.6383 3.67526e-015 -1.98785e-016 27.1203 -3.87311 -0.117809 1.75139 -1.09987e-014 -3.18055e-015 -73.8714 -19.3722 0.187566 -9.18507 59.8443 5.15349 1.10029 8.92082 5.55994 -0.86973 92.7854 -9.87688 -34.0258 -111.268 -36.0085 -12.8906 0.00108267 25.0409 -19.7814 -1.19366 -17.8733 -0.359953 -60.7237 -46.2459 -49.8934 0.73915 22.5306 -91.7279 0.00228073 -5.19513 169.006 
7.9505 84.9789 -105.341 -96.5513 44.7309 -81.2486 28.2213 9.57273 -27.4633 -3.50916e-015 0 24.9934 -0.475752 -0.119143 14.2693 -5.34897e-015 9.54166e-015 -31.4508 -1.17067 1.23551 -9.50522 3.57555e-015 0 27.1859 -3.94235 -0.111832 1.6286 0 0 -74.1038 -20.948 -0.470895 -9.05073 60.1793 5.80712 0.428499 8.29531 5.97187 -0.867211 93.7048 -9.78125 -33.465 -110.984 -35.7357 -12.6307 -0.00220134 24.2079 -19.8244 -2.1517 -17.3555 -0.641794 -62.7447 -44.9083 -48.7178 -0.918094 19.8752 -87.1665 -0.000662262 -5.32024 168.399 
7.8958 84.9256 -105.336 -97.0862 44.6223 -80.7959 29.1691 9.66418 -28.2958 -3.14627e-015 -7.95139e-016 25.638 -1.55776 -0.385522 13.9249 3.08026e-015 1.11319e-014 -31.4509 -1.98367 1.63872 -9.35109 4.04391e-016 -7.95139e-016 26.9569 -3.51322 -0.112398 1.83395 -3.7774e-014 0 -75.3686 -21.9014 -0.787026 -9.16135 59.8136 6.22041 0.599213 7.5561 6.48653 -0.858681 92.496 -8.82661 -32.5002 -109.914 -34.8612 -11.7059 0.000282824 23.0037 -19.4228 -2.54459 -17.2936 -0.75711 -66.7665 -41.1801 -51.0492 -3.19624 17.8452 -79.6429 5.34888e-005 -4.98908 167.962 
7.80168 84.9409 -105.242 -97.5429 45.2762 -80.2663 31.0728 9.55802 -28.7396 2.76339e-015 1.59028e-015 25.9225 -2.50032 -0.602596 13.5761 -1.00499e-014 7.95139e-015 -31.451 -1.8296 1.74617 -9.53217 -2.91037e-015 -1.2921e-015 26.7195 -2.79963 -0.102315 2.11815 -5.7977e-015 -1.59028e-015 -74.6613 -21.6695 -0.727228 -9.57002 59.8215 6.73873 0.845822 7.49896 6.50809 -0.855775 89.4259 -7.82243 -31.6081 -106.44 -34.0727 -9.4053 -0.000165332 22.5585 -19.6972 -2.59202 -18.071 -0.802967 -70.6186 -35.7014 -55.8151 -5.45956 17.3994 -72.1958 -0.000829577 -5.45073 167.996 
7.89434 84.9651 -105.16 -97.8826 46.2588 -79.7864 31.9396 9.53864 -28.8763 -7.80192e-016 1.59028e-015 26.1326 -2.35904 -0.561007 13.3492 -7.29425e-015 6.36111e-015 -31.4511 -1.65487 1.67563 -9.8502 -1.35306e-014 -1.39149e-015 26.5918 -2.09306 -0.0863225 2.40868 0 0 -74.833 -21.3351 -0.560836 -9.99814 60.1511 7.13101 1.46925 7.23234 6.09519 -0.773634 87.2042 -6.97474 -31.1081 -104.159 -33.3101 -7.89984 -0.00169183 22.1593 -19.43 -1.99561 -19.1557 -0.647205 -73.5068 -29.7743 -59.8885 -6.33245 15.9941 -67.9866 0.00229228 -6.1103 167.705 
8.02831 85.0194 -105.132 -98.1704 47.5043 -79.3133 32.5224 9.57654 -28.773 -3.90757e-016 7.95139e-016 26.171 -1.65896 -0.389044 13.1353 -5.83527e-015 8.74653e-015 -31.4511 -1.03752 1.5278 -10.2774 1.4309e-014 -1.98785e-016 26.4541 -1.47178 -0.0693927 2.76825 -1.88791e-014 1.59028e-015 -75.1968 -20.5959 -0.376775 -10.3594 60.5214 7.17944 1.82889 6.93049 5.71423 -0.693714 85.8809 -6.48393 -30.5331 -103.192 -32.6219 -7.20362 -0.00119518 22.165 -19.3888 -1.43811 -20.2052 -0.494102 -74.5514 -25.1053 -62.8621 -4.83831 11.5919 -67.4493 0.00099574 -6.4684 166.15 
8.12099 85.0844 -105.055 -98.5052 48.9603 -78.7763 33.0132 9.66362 -28.5171 8.24365e-015 -2.38542e-015 26.0252 -0.705566 -0.162411 12.9582 6.48676e-016 7.15625e-015 -31.4512 0.0331807 1.37948 -10.7227 -6.25905e-015 -1.68967e-015 26.2401 -1.05727 -0.058435 3.17382 -2.45345e-014 -3.18055e-015 -75.2272 -19.7398 -0.182083 -10.5881 60.9127 6.92406 1.96411 6.90531 5.48685 -0.662507 85.3638 -6.4129 -29.8696 -103.296 -32.1316 -7.16346 -0.000622126 22.4133 -19.5595 -1.02535 -21.0054 -0.366118 -73.982 -22.6173 -64.4776 -2.60946 7.94915 -71.0908 -0.000944186 -6.4981 164.287 
8.30825 85.1703 -105.103 -98.8036 50.0542 -78.3663 33.0437 9.81336 -28.217 4.68322e-015 -2.38542e-015 25.7675 0.415015 0.095714 12.9737 -4.37626e-015 1.11319e-014 -31.4513 1.1578 1.2834 -11.0322 -6.59017e-015 -9.93923e-016 25.9369 -1.01396 -0.0622858 3.5166 1.15156e-014 3.18055e-015 -74.5602 -19.6425 0.097709 -10.639 61.5563 6.65981 2.59558 7.6094 5.18985 -0.692006 85.4318 -6.69911 -29.5608 -103.877 -32.0405 -7.46705 1.47601e-005 22.2175 -19.1474 -0.269378 -21.4699 -0.0986152 -72.7967 -22.6704 -64.7709 -2.49553 11.1247 -77.1585 -0.000405634 -6.66994 164.959 
8.39511 85.2419 -105.186 -99.0428 50.9123 -77.9722 33.3938 9.85593 -27.9857 7.52151e-016 -1.59028e-015 25.3127 0.933671 0.216453 13.0405 -7.29425e-015 6.36111e-015 -31.4513 1.95036 1.26509 -11.2841 6.66091e-016 -1.39149e-015 25.5799 -0.928627 -0.0633366 3.91625 1.13832e-014 3.18055e-015 -74.3892 -19.6716 0.241319 -10.5772 62.5268 6.20995 2.05207 8.41933 5.12502 -0.757366 86.1706 -7.377 -29.3533 -104.425 -32.6846 -7.91024 -0.000961571 22.572 -19.0902 0.0491386 -21.1111 0.0170825 -70.5019 -27.4323 -62.6565 -0.719673 13.5463 -86.7649 -0.00064498 -6.20728 164.887 
8.39209 85.3429 -105.127 -99.1378 51.4401 -77.7379 33.6317 9.78923 -27.6988 -3.67734e-016 7.95139e-016 24.8195 1.22467 0.287785 13.2007 -3.07957e-015 7.15625e-015 -31.4518 2.31017 1.1574 -11.3289 -1.41032e-014 9.93923e-017 25.1667 -0.679957 -0.05013 4.29666 -5.65568e-015 -1.59028e-015 -74.295 -19.6639 0.186563 -10.5016 63.335 5.91247 1.63755 8.95324 5.2506 -0.826678 86.7322 -7.94821 -28.9842 -105.504 -33.264 -8.65684 -0.00163498 23.0016 -19.3276 -0.0721631 -20.2514 -0.022696 -67.8017 -33.0807 -59.3621 1.18121 14.7754 -94.3551 0.00113146 -5.978 165.359 
8.44806 85.4258 -105.133 -99.1004 51.5006 -77.6992 33.5933 9.71468 -27.4769 -3.85044e-015 7.95139e-016 24.3381 1.27043 0.302713 13.4 -5.83558e-015 8.74653e-015 -31.4477 2.31201 1.10238 -11.1644 7.04757e-015 -9.93923e-017 24.7024 -0.631986 -0.0500393 4.53063 0 0 -73.889 -19.7804 0.0719056 -10.3905 63.3531 5.73456 0.793964 9.04313 5.34424 -0.849324 87.879 -8.49552 -28.6526 -107.274 -33.931 -9.86159 -0.00126907 23.71 -19.5817 -0.372629 -19.0093 -0.117551 -64.9004 -38.1722 -55.0874 2.95825 16.6658 -100.009 0.0105925 -5.55889 166.694 
